# xmcd
#
# Track frame offsets: 
#        150
#        24385
#        47662
#        74780
#        91091
#        114831
#        131890
#        156799
#
# Disc length: 2461 seconds
#
# Revision: 2
# Processed by: cddbd v1.5.2PL0 Copyright (c) Steve Scherf et al.
# Submitted via: ExactAudioCopy v1.0b3
#
DISCID=65099b08
DTITLE=Millenium 2000 - Princess Of The Hearts
DYEAR=1999
DGENRE=New Age
TTITLE0=Lovely Days - Lovely Nights
TTITLE1=Princess Of Millenium
TTITLE2=Lament 00'
TTITLE3=Minitangram
TTITLE4=I Love To Love My Love
TTITLE5=Trylogy - Look Into My Eyes
TTITLE6=Trylogy - Look Into My Heart
TTITLE7=Trylogy - Look Into My Life
EXTD=YEAR: 1999
EXTT0=
EXTT1=
EXTT2=
EXTT3=
EXTT4=
EXTT5=
EXTT6=
EXTT7=
PLAYORDER=
